<mxfile host="Electron" agent="Mozilla/5.0 (Macintosh; Intel Mac OS X 10_15_7) AppleWebKit/537.36 (KHTML, like Gecko) draw.io/24.7.8 Chrome/128.0.6613.36 Electron/32.0.1 Safari/537.36" version="24.7.8">
  <diagram name="Page-1" id="fuwLcccHWYWuhCyxNVYm">
    <mxGraphModel dx="1600" dy="854" grid="1" gridSize="10" guides="1" tooltips="1" connect="1" arrows="1" fold="1" page="1" pageScale="1" pageWidth="850" pageHeight="1100" math="0" shadow="0">
      <root>
        <mxCell id="0" />
        <mxCell id="1" parent="0" />
        <object placeholders="1" c4Name="Process" c4Type="Component" c4Description="Group of related actions within a workflow." label="&lt;font style=&quot;font-size: 16px&quot;&gt;&lt;b&gt;%c4Name%&lt;/b&gt;&lt;/font&gt;&lt;div&gt;[%c4Type%]&lt;/div&gt;&lt;br&gt;&lt;div&gt;&lt;font style=&quot;font-size: 11px&quot;&gt;&lt;font color=&quot;#cccccc&quot;&gt;%c4Description%&lt;/font&gt;&lt;/div&gt;" id="Process-1">
          <mxCell style="rounded=1;whiteSpace=wrap;html=1;labelBackgroundColor=none;fillColor=#0056b3;fontColor=#ffffff;align=center;arcSize=10;strokeColor=#0056b3;metaEdit=1;resizable=0;" vertex="1" parent="1">
            <mxGeometry x="50" y="430" width="240" height="120" as="geometry" />
          </mxCell>
        </object>
        <object placeholders="1" c4Name="Action" c4Type="Component" c4Description="Smallest executable task within a process." label="&lt;font style=&quot;font-size: 16px&quot;&gt;&lt;b&gt;%c4Name%&lt;/b&gt;&lt;/font&gt;&lt;div&gt;[%c4Type%]&lt;/div&gt;&lt;br&gt;&lt;div&gt;&lt;font style=&quot;font-size: 11px&quot;&gt;&lt;font color=&quot;#cccccc&quot;&gt;%c4Description%&lt;/font&gt;&lt;/div&gt;" id="DeploymentPlan-1">
          <mxCell style="rounded=1;whiteSpace=wrap;html=1;labelBackgroundColor=none;fillColor=#0056b3;fontColor=#ffffff;align=center;arcSize=10;strokeColor=#0056b3;metaEdit=1;resizable=0;" vertex="1" parent="1">
            <mxGeometry x="50" y="630" width="240" height="120" as="geometry" />
          </mxCell>
        </object>
        <mxCell id="WwPTkD9dr1ovu30DdXSS-8" value="" style="edgeStyle=orthogonalEdgeStyle;rounded=0;orthogonalLoop=1;jettySize=auto;html=1;" edge="1" parent="1" source="PreDeployment-1" target="DeploymentPhase-1">
          <mxGeometry relative="1" as="geometry" />
        </mxCell>
        <object placeholders="1" c4Name="Pre-Deployment Phase" c4Type="Component" c4Description="Preparation activities before deployment." label="&lt;font style=&quot;font-size: 16px&quot;&gt;&lt;b&gt;%c4Name%&lt;/b&gt;&lt;/font&gt;&lt;div&gt;[%c4Type%]&lt;/div&gt;&lt;br&gt;&lt;div&gt;&lt;font style=&quot;font-size: 11px&quot;&gt;&lt;font color=&quot;#cccccc&quot;&gt;%c4Description%&lt;/font&gt;&lt;/div&gt;" id="PreDeployment-1">
          <mxCell style="rounded=1;whiteSpace=wrap;html=1;labelBackgroundColor=none;fillColor=#004996;fontColor=#ffffff;align=center;arcSize=10;strokeColor=#0056b3;metaEdit=1;resizable=0;" vertex="1" parent="1">
            <mxGeometry x="70" y="220" width="240" height="120" as="geometry" />
          </mxCell>
        </object>
        <mxCell id="WwPTkD9dr1ovu30DdXSS-9" value="" style="edgeStyle=orthogonalEdgeStyle;rounded=0;orthogonalLoop=1;jettySize=auto;html=1;" edge="1" parent="1" source="DeploymentPhase-1" target="PostDeployment-1">
          <mxGeometry relative="1" as="geometry" />
        </mxCell>
        <object placeholders="1" c4Name="Deployment Phase" c4Type="Component" c4Description="Core deployment activities." label="&lt;font style=&quot;font-size: 16px&quot;&gt;&lt;b&gt;%c4Name%&lt;/b&gt;&lt;/font&gt;&lt;div&gt;[%c4Type%]&lt;/div&gt;&lt;br&gt;&lt;div&gt;&lt;font style=&quot;font-size: 11px&quot;&gt;&lt;font color=&quot;#cccccc&quot;&gt;%c4Description%&lt;/font&gt;&lt;/div&gt;" id="DeploymentPhase-1">
          <mxCell style="rounded=1;whiteSpace=wrap;html=1;labelBackgroundColor=none;fillColor=#004996;fontColor=#ffffff;align=center;arcSize=10;strokeColor=#0056b3;metaEdit=1;resizable=0;" vertex="1" parent="1">
            <mxGeometry x="420" y="220" width="240" height="120" as="geometry" />
          </mxCell>
        </object>
        <object placeholders="1" c4Name="Post-Deployment Phase" c4Type="Component" c4Description="Verification and monitoring activities." label="&lt;font style=&quot;font-size: 16px&quot;&gt;&lt;b&gt;%c4Name%&lt;/b&gt;&lt;/font&gt;&lt;div&gt;[%c4Type%]&lt;/div&gt;&lt;br&gt;&lt;div&gt;&lt;font style=&quot;font-size: 11px&quot;&gt;&lt;font color=&quot;#cccccc&quot;&gt;%c4Description%&lt;/font&gt;&lt;/div&gt;" id="PostDeployment-1">
          <mxCell style="rounded=1;whiteSpace=wrap;html=1;labelBackgroundColor=none;fillColor=#0056b3;fontColor=#ffffff;align=center;arcSize=10;strokeColor=#0056b3;metaEdit=1;resizable=0;" vertex="1" parent="1">
            <mxGeometry x="767" y="220" width="240" height="120" as="geometry" />
          </mxCell>
        </object>
        <object placeholders="1" c4Name="Process" c4Type="Component" c4Description="Group of related actions within a workflow." label="&lt;font style=&quot;font-size: 16px&quot;&gt;&lt;b&gt;%c4Name%&lt;/b&gt;&lt;/font&gt;&lt;div&gt;[%c4Type%]&lt;/div&gt;&lt;br&gt;&lt;div&gt;&lt;font style=&quot;font-size: 11px&quot;&gt;&lt;font color=&quot;#cccccc&quot;&gt;%c4Description%&lt;/font&gt;&lt;/div&gt;" id="WwPTkD9dr1ovu30DdXSS-4">
          <mxCell style="rounded=1;whiteSpace=wrap;html=1;labelBackgroundColor=none;fillColor=#0056b3;fontColor=#ffffff;align=center;arcSize=10;strokeColor=#0056b3;metaEdit=1;resizable=0;" vertex="1" parent="1">
            <mxGeometry x="60" y="440" width="240" height="120" as="geometry" />
          </mxCell>
        </object>
        <mxCell id="WwPTkD9dr1ovu30DdXSS-32" value="" style="edgeStyle=orthogonalEdgeStyle;rounded=0;orthogonalLoop=1;jettySize=auto;html=1;" edge="1" parent="1" source="WwPTkD9dr1ovu30DdXSS-5" target="PreDeployment-1">
          <mxGeometry relative="1" as="geometry" />
        </mxCell>
        <object placeholders="1" c4Name="Process" c4Type="Component" c4Description="Group of related actions within a workflow." label="&lt;font style=&quot;font-size: 16px&quot;&gt;&lt;b&gt;%c4Name%&lt;/b&gt;&lt;/font&gt;&lt;div&gt;[%c4Type%]&lt;/div&gt;&lt;br&gt;&lt;div&gt;&lt;font style=&quot;font-size: 11px&quot;&gt;&lt;font color=&quot;#cccccc&quot;&gt;%c4Description%&lt;/font&gt;&lt;/div&gt;" id="WwPTkD9dr1ovu30DdXSS-5">
          <mxCell style="rounded=1;whiteSpace=wrap;html=1;labelBackgroundColor=none;fillColor=#0056b3;fontColor=#ffffff;align=center;arcSize=10;strokeColor=#0056b3;metaEdit=1;resizable=0;" vertex="1" parent="1">
            <mxGeometry x="70" y="450" width="240" height="120" as="geometry" />
          </mxCell>
        </object>
        <object placeholders="1" c4Name="Action" c4Type="Component" c4Description="Smallest executable task within a process." label="&lt;font style=&quot;font-size: 16px&quot;&gt;&lt;b&gt;%c4Name%&lt;/b&gt;&lt;/font&gt;&lt;div&gt;[%c4Type%]&lt;/div&gt;&lt;br&gt;&lt;div&gt;&lt;font style=&quot;font-size: 11px&quot;&gt;&lt;font color=&quot;#cccccc&quot;&gt;%c4Description%&lt;/font&gt;&lt;/div&gt;" id="WwPTkD9dr1ovu30DdXSS-6">
          <mxCell style="rounded=1;whiteSpace=wrap;html=1;labelBackgroundColor=none;fillColor=#0056b3;fontColor=#ffffff;align=center;arcSize=10;strokeColor=#0056b3;metaEdit=1;resizable=0;" vertex="1" parent="1">
            <mxGeometry x="60" y="640" width="240" height="120" as="geometry" />
          </mxCell>
        </object>
        <mxCell id="WwPTkD9dr1ovu30DdXSS-31" value="" style="edgeStyle=orthogonalEdgeStyle;rounded=0;orthogonalLoop=1;jettySize=auto;html=1;" edge="1" parent="1" source="WwPTkD9dr1ovu30DdXSS-7" target="WwPTkD9dr1ovu30DdXSS-5">
          <mxGeometry relative="1" as="geometry" />
        </mxCell>
        <object placeholders="1" c4Name="Action" c4Type="Component" c4Description="Smallest executable task within a process." label="&lt;font style=&quot;font-size: 16px&quot;&gt;&lt;b&gt;%c4Name%&lt;/b&gt;&lt;/font&gt;&lt;div&gt;[%c4Type%]&lt;/div&gt;&lt;br&gt;&lt;div&gt;&lt;font style=&quot;font-size: 11px&quot;&gt;&lt;font color=&quot;#cccccc&quot;&gt;%c4Description%&lt;/font&gt;&lt;/div&gt;" id="WwPTkD9dr1ovu30DdXSS-7">
          <mxCell style="rounded=1;whiteSpace=wrap;html=1;labelBackgroundColor=none;fillColor=#0056b3;fontColor=#ffffff;align=center;arcSize=10;strokeColor=#0056b3;metaEdit=1;resizable=0;" vertex="1" parent="1">
            <mxGeometry x="70" y="650" width="240" height="120" as="geometry" />
          </mxCell>
        </object>
        <object placeholders="1" c4Name="Process" c4Type="Component" c4Description="Group of related actions within a workflow." label="&lt;font style=&quot;font-size: 16px&quot;&gt;&lt;b&gt;%c4Name%&lt;/b&gt;&lt;/font&gt;&lt;div&gt;[%c4Type%]&lt;/div&gt;&lt;br&gt;&lt;div&gt;&lt;font style=&quot;font-size: 11px&quot;&gt;&lt;font color=&quot;#cccccc&quot;&gt;%c4Description%&lt;/font&gt;&lt;/div&gt;" id="WwPTkD9dr1ovu30DdXSS-12">
          <mxCell style="rounded=1;whiteSpace=wrap;html=1;labelBackgroundColor=none;fillColor=#0056b3;fontColor=#ffffff;align=center;arcSize=10;strokeColor=#0056b3;metaEdit=1;resizable=0;" vertex="1" parent="1">
            <mxGeometry x="410" y="430" width="240" height="120" as="geometry" />
          </mxCell>
        </object>
        <object placeholders="1" c4Name="Action" c4Type="Component" c4Description="Smallest executable task within a process." label="&lt;font style=&quot;font-size: 16px&quot;&gt;&lt;b&gt;%c4Name%&lt;/b&gt;&lt;/font&gt;&lt;div&gt;[%c4Type%]&lt;/div&gt;&lt;br&gt;&lt;div&gt;&lt;font style=&quot;font-size: 11px&quot;&gt;&lt;font color=&quot;#cccccc&quot;&gt;%c4Description%&lt;/font&gt;&lt;/div&gt;" id="WwPTkD9dr1ovu30DdXSS-13">
          <mxCell style="rounded=1;whiteSpace=wrap;html=1;labelBackgroundColor=none;fillColor=#0056b3;fontColor=#ffffff;align=center;arcSize=10;strokeColor=#0056b3;metaEdit=1;resizable=0;" vertex="1" parent="1">
            <mxGeometry x="410" y="630" width="240" height="120" as="geometry" />
          </mxCell>
        </object>
        <mxCell id="WwPTkD9dr1ovu30DdXSS-42" value="" style="edgeStyle=orthogonalEdgeStyle;rounded=0;orthogonalLoop=1;jettySize=auto;html=1;" edge="1" parent="1" source="WwPTkD9dr1ovu30DdXSS-14" target="DeploymentPhase-1">
          <mxGeometry relative="1" as="geometry" />
        </mxCell>
        <object placeholders="1" c4Name="Process" c4Type="Component" c4Description="Group of related actions within a workflow." label="&lt;font style=&quot;font-size: 16px&quot;&gt;&lt;b&gt;%c4Name%&lt;/b&gt;&lt;/font&gt;&lt;div&gt;[%c4Type%]&lt;/div&gt;&lt;br&gt;&lt;div&gt;&lt;font style=&quot;font-size: 11px&quot;&gt;&lt;font color=&quot;#cccccc&quot;&gt;%c4Description%&lt;/font&gt;&lt;/div&gt;" id="WwPTkD9dr1ovu30DdXSS-14">
          <mxCell style="rounded=1;whiteSpace=wrap;html=1;labelBackgroundColor=none;fillColor=#0056b3;fontColor=#ffffff;align=center;arcSize=10;strokeColor=#0056b3;metaEdit=1;resizable=0;" vertex="1" parent="1">
            <mxGeometry x="420" y="440" width="240" height="120" as="geometry" />
          </mxCell>
        </object>
        <object placeholders="1" c4Name="Process" c4Type="Component" c4Description="Group of related actions within a workflow." label="&lt;font style=&quot;font-size: 16px&quot;&gt;&lt;b&gt;%c4Name%&lt;/b&gt;&lt;/font&gt;&lt;div&gt;[%c4Type%]&lt;/div&gt;&lt;br&gt;&lt;div&gt;&lt;font style=&quot;font-size: 11px&quot;&gt;&lt;font color=&quot;#cccccc&quot;&gt;%c4Description%&lt;/font&gt;&lt;/div&gt;" id="WwPTkD9dr1ovu30DdXSS-16">
          <mxCell style="rounded=1;whiteSpace=wrap;html=1;labelBackgroundColor=none;fillColor=#0056b3;fontColor=#ffffff;align=center;arcSize=10;strokeColor=#0056b3;metaEdit=1;resizable=0;" vertex="1" parent="1">
            <mxGeometry x="430" y="450" width="240" height="120" as="geometry" />
          </mxCell>
        </object>
        <object placeholders="1" c4Name="Action" c4Type="Component" c4Description="Smallest executable task within a process." label="&lt;font style=&quot;font-size: 16px&quot;&gt;&lt;b&gt;%c4Name%&lt;/b&gt;&lt;/font&gt;&lt;div&gt;[%c4Type%]&lt;/div&gt;&lt;br&gt;&lt;div&gt;&lt;font style=&quot;font-size: 11px&quot;&gt;&lt;font color=&quot;#cccccc&quot;&gt;%c4Description%&lt;/font&gt;&lt;/div&gt;" id="WwPTkD9dr1ovu30DdXSS-17">
          <mxCell style="rounded=1;whiteSpace=wrap;html=1;labelBackgroundColor=none;fillColor=#0056b3;fontColor=#ffffff;align=center;arcSize=10;strokeColor=#0056b3;metaEdit=1;resizable=0;" vertex="1" parent="1">
            <mxGeometry x="420" y="640" width="240" height="120" as="geometry" />
          </mxCell>
        </object>
        <mxCell id="WwPTkD9dr1ovu30DdXSS-35" value="" style="edgeStyle=orthogonalEdgeStyle;rounded=0;orthogonalLoop=1;jettySize=auto;html=1;" edge="1" parent="1" source="WwPTkD9dr1ovu30DdXSS-18" target="WwPTkD9dr1ovu30DdXSS-16">
          <mxGeometry relative="1" as="geometry" />
        </mxCell>
        <object placeholders="1" c4Name="Action" c4Type="Component" c4Description="Smallest executable task within a process." label="&lt;font style=&quot;font-size: 16px&quot;&gt;&lt;b&gt;%c4Name%&lt;/b&gt;&lt;/font&gt;&lt;div&gt;[%c4Type%]&lt;/div&gt;&lt;br&gt;&lt;div&gt;&lt;font style=&quot;font-size: 11px&quot;&gt;&lt;font color=&quot;#cccccc&quot;&gt;%c4Description%&lt;/font&gt;&lt;/div&gt;" id="WwPTkD9dr1ovu30DdXSS-18">
          <mxCell style="rounded=1;whiteSpace=wrap;html=1;labelBackgroundColor=none;fillColor=#0056b3;fontColor=#ffffff;align=center;arcSize=10;strokeColor=#0056b3;metaEdit=1;resizable=0;" vertex="1" parent="1">
            <mxGeometry x="430" y="650" width="240" height="120" as="geometry" />
          </mxCell>
        </object>
        <object placeholders="1" c4Name="Process" c4Type="Component" c4Description="Group of related actions within a workflow." label="&lt;font style=&quot;font-size: 16px&quot;&gt;&lt;b&gt;%c4Name%&lt;/b&gt;&lt;/font&gt;&lt;div&gt;[%c4Type%]&lt;/div&gt;&lt;br&gt;&lt;div&gt;&lt;font style=&quot;font-size: 11px&quot;&gt;&lt;font color=&quot;#cccccc&quot;&gt;%c4Description%&lt;/font&gt;&lt;/div&gt;" id="WwPTkD9dr1ovu30DdXSS-19">
          <mxCell style="rounded=1;whiteSpace=wrap;html=1;labelBackgroundColor=none;fillColor=#0056b3;fontColor=#ffffff;align=center;arcSize=10;strokeColor=#0056b3;metaEdit=1;resizable=0;" vertex="1" parent="1">
            <mxGeometry x="747" y="430" width="240" height="120" as="geometry" />
          </mxCell>
        </object>
        <object placeholders="1" c4Name="Action" c4Type="Component" c4Description="Smallest executable task within a process." label="&lt;font style=&quot;font-size: 16px&quot;&gt;&lt;b&gt;%c4Name%&lt;/b&gt;&lt;/font&gt;&lt;div&gt;[%c4Type%]&lt;/div&gt;&lt;br&gt;&lt;div&gt;&lt;font style=&quot;font-size: 11px&quot;&gt;&lt;font color=&quot;#cccccc&quot;&gt;%c4Description%&lt;/font&gt;&lt;/div&gt;" id="WwPTkD9dr1ovu30DdXSS-20">
          <mxCell style="rounded=1;whiteSpace=wrap;html=1;labelBackgroundColor=none;fillColor=#0056b3;fontColor=#ffffff;align=center;arcSize=10;strokeColor=#0056b3;metaEdit=1;resizable=0;" vertex="1" parent="1">
            <mxGeometry x="757" y="630" width="240" height="120" as="geometry" />
          </mxCell>
        </object>
        <object placeholders="1" c4Name="Process" c4Type="Component" c4Description="Group of related actions within a workflow." label="&lt;font style=&quot;font-size: 16px&quot;&gt;&lt;b&gt;%c4Name%&lt;/b&gt;&lt;/font&gt;&lt;div&gt;[%c4Type%]&lt;/div&gt;&lt;br&gt;&lt;div&gt;&lt;font style=&quot;font-size: 11px&quot;&gt;&lt;font color=&quot;#cccccc&quot;&gt;%c4Description%&lt;/font&gt;&lt;/div&gt;" id="WwPTkD9dr1ovu30DdXSS-21">
          <mxCell style="rounded=1;whiteSpace=wrap;html=1;labelBackgroundColor=none;fillColor=#0056b3;fontColor=#ffffff;align=center;arcSize=10;strokeColor=#0056b3;metaEdit=1;resizable=0;" vertex="1" parent="1">
            <mxGeometry x="757" y="440" width="240" height="120" as="geometry" />
          </mxCell>
        </object>
        <mxCell id="WwPTkD9dr1ovu30DdXSS-34" value="" style="edgeStyle=orthogonalEdgeStyle;rounded=0;orthogonalLoop=1;jettySize=auto;html=1;" edge="1" parent="1" source="WwPTkD9dr1ovu30DdXSS-23" target="PostDeployment-1">
          <mxGeometry relative="1" as="geometry" />
        </mxCell>
        <object placeholders="1" c4Name="Process" c4Type="Component" c4Description="Group of related actions within a workflow." label="&lt;font style=&quot;font-size: 16px&quot;&gt;&lt;b&gt;%c4Name%&lt;/b&gt;&lt;/font&gt;&lt;div&gt;[%c4Type%]&lt;/div&gt;&lt;br&gt;&lt;div&gt;&lt;font style=&quot;font-size: 11px&quot;&gt;&lt;font color=&quot;#cccccc&quot;&gt;%c4Description%&lt;/font&gt;&lt;/div&gt;" id="WwPTkD9dr1ovu30DdXSS-23">
          <mxCell style="rounded=1;whiteSpace=wrap;html=1;labelBackgroundColor=none;fillColor=#0056b3;fontColor=#ffffff;align=center;arcSize=10;strokeColor=#0056b3;metaEdit=1;resizable=0;" vertex="1" parent="1">
            <mxGeometry x="767" y="450" width="240" height="120" as="geometry" />
          </mxCell>
        </object>
        <mxCell id="WwPTkD9dr1ovu30DdXSS-41" value="" style="edgeStyle=orthogonalEdgeStyle;rounded=0;orthogonalLoop=1;jettySize=auto;html=1;" edge="1" parent="1" source="WwPTkD9dr1ovu30DdXSS-24" target="WwPTkD9dr1ovu30DdXSS-23">
          <mxGeometry relative="1" as="geometry" />
        </mxCell>
        <object placeholders="1" c4Name="Action" c4Type="Component" c4Description="Smallest executable task within a process." label="&lt;font style=&quot;font-size: 16px&quot;&gt;&lt;b&gt;%c4Name%&lt;/b&gt;&lt;/font&gt;&lt;div&gt;[%c4Type%]&lt;/div&gt;&lt;br&gt;&lt;div&gt;&lt;font style=&quot;font-size: 11px&quot;&gt;&lt;font color=&quot;#cccccc&quot;&gt;%c4Description%&lt;/font&gt;&lt;/div&gt;" id="WwPTkD9dr1ovu30DdXSS-24">
          <mxCell style="rounded=1;whiteSpace=wrap;html=1;labelBackgroundColor=none;fillColor=#0056b3;fontColor=#ffffff;align=center;arcSize=10;strokeColor=#0056b3;metaEdit=1;resizable=0;" vertex="1" parent="1">
            <mxGeometry x="767" y="640" width="240" height="120" as="geometry" />
          </mxCell>
        </object>
        <object placeholders="1" c4Name="Action" c4Type="Component" c4Description="Smallest executable task within a process." label="&lt;font style=&quot;font-size: 16px&quot;&gt;&lt;b&gt;%c4Name%&lt;/b&gt;&lt;/font&gt;&lt;div&gt;[%c4Type%]&lt;/div&gt;&lt;br&gt;&lt;div&gt;&lt;font style=&quot;font-size: 11px&quot;&gt;&lt;font color=&quot;#cccccc&quot;&gt;%c4Description%&lt;/font&gt;&lt;/div&gt;" id="WwPTkD9dr1ovu30DdXSS-25">
          <mxCell style="rounded=1;whiteSpace=wrap;html=1;labelBackgroundColor=none;fillColor=#0056b3;fontColor=#ffffff;align=center;arcSize=10;strokeColor=#0056b3;metaEdit=1;resizable=0;" vertex="1" parent="1">
            <mxGeometry x="777" y="650" width="240" height="120" as="geometry" />
          </mxCell>
        </object>
      </root>
    </mxGraphModel>
  </diagram>
</mxfile>
